<?xml version="1.0" encoding="utf-8"?>
<!-- Generator: Adobe Illustrator 25.2.1, SVG Export Plug-In . SVG Version: 6.00 Build 0)  -->
<svg version="1.1" id="レイヤー_1" xmlns="http://www.w3.org/2000/svg" xmlns:xlink="http://www.w3.org/1999/xlink" x="0px"
	 y="0px" viewBox="0 0 40 40" style="enable-background:new 0 0 40 40;" xml:space="preserve">
<style type="text/css">
	.st0{fill:#FFC042;}
</style>
<g>
	<g>
		<path class="st0" d="M20,23.33c-4.61,0-8.33-3.73-8.33-8.33S15.39,6.67,20,6.67s8.33,3.73,8.33,8.33H30c0-5.53-4.47-10-10-10
			S10,9.47,10,15s4.47,10,10,10V23.33z"/>
		<path class="st0" d="M20,8.33c-3.68,0-6.67,2.98-6.67,6.67s2.98,6.67,6.67,6.67V20c-2.76,0-5-2.24-5-5s2.24-5,5-5s5,2.24,5,5h1.67
			C26.67,11.32,23.68,8.33,20,8.33z"/>
		<path class="st0" d="M20,11.67c-1.84,0-3.33,1.49-3.33,3.33s1.49,3.33,3.33,3.33v-1.67c-0.92,0-1.67-0.75-1.67-1.67
			s0.75-1.67,1.67-1.67s1.67,0.75,1.67,1.67h1.67C23.33,13.16,21.84,11.67,20,11.67z"/>
	</g>
	<g>
		<path class="st0" d="M20,16.67c4.61,0,8.33,3.73,8.33,8.33s-3.73,8.33-8.33,8.33s-8.33-3.73-8.33-8.33H10c0,5.53,4.47,10,10,10
			s10-4.47,10-10s-4.47-10-10-10V16.67z"/>
		<path class="st0" d="M20,31.67c3.68,0,6.67-2.98,6.67-6.67s-2.98-6.67-6.67-6.67V20c2.76,0,5,2.24,5,5s-2.24,5-5,5s-5-2.24-5-5
			h-1.67C13.33,28.68,16.32,31.67,20,31.67z"/>
		<path class="st0" d="M20,28.33c1.84,0,3.33-1.49,3.33-3.33s-1.49-3.33-3.33-3.33v1.67c0.92,0,1.67,0.75,1.67,1.67
			s-0.75,1.67-1.67,1.67s-1.67-0.75-1.67-1.67h-1.67C16.67,26.84,18.16,28.33,20,28.33z"/>
	</g>
</g>
</svg>
