<?xml version="1.0" encoding="utf-8"?>
<!-- Generator: Adobe Illustrator 25.2.1, SVG Export Plug-In . SVG Version: 6.00 Build 0)  -->
<svg version="1.1" id="レイヤー_1" xmlns="http://www.w3.org/2000/svg" xmlns:xlink="http://www.w3.org/1999/xlink" x="0px"
	 y="0px" viewBox="0 0 595.28 841.89" style="enable-background:new 0 0 595.28 841.89;" xml:space="preserve">
<style type="text/css">
	.st0{fill:#FFC042;}
</style>
<g>
	<g>
		<path class="st0" d="M298,461.5c-48.36,0-87.5-39.14-87.5-87.5s39.14-87.5,87.5-87.5s87.5,39.14,87.5,87.5H403
			c0-58.04-46.96-105-105-105s-105,46.96-105,105s46.96,105,105,105V461.5z"/>
		<path class="st0" d="M298,304c-38.69,0-70,31.31-70,70s31.31,70,70,70v-17.5c-29.02,0-52.5-23.48-52.5-52.5s23.48-52.5,52.5-52.5
			s52.5,23.48,52.5,52.5H368C368,335.31,336.69,304,298,304z"/>
		<path class="st0" d="M298,339c-19.35,0-35,15.65-35,35s15.65,35,35,35v-17.5c-9.67,0-17.5-7.83-17.5-17.5s7.83-17.5,17.5-17.5
			s17.5,7.83,17.5,17.5H333C333,354.65,317.35,339,298,339z"/>
	</g>
	<g>
		<path class="st0" d="M298,391.5c48.36,0,87.5,39.14,87.5,87.5s-39.14,87.5-87.5,87.5s-87.5-39.14-87.5-87.5H193
			c0,58.04,46.96,105,105,105s105-46.96,105-105s-46.96-105-105-105V391.5z"/>
		<path class="st0" d="M298,549c38.69,0,70-31.31,70-70s-31.31-70-70-70v17.5c29.02,0,52.5,23.48,52.5,52.5s-23.48,52.5-52.5,52.5
			s-52.5-23.48-52.5-52.5H228C228,517.69,259.31,549,298,549z"/>
		<path class="st0" d="M298,514c19.35,0,35-15.65,35-35s-15.65-35-35-35v17.5c9.67,0,17.5,7.83,17.5,17.5s-7.83,17.5-17.5,17.5
			s-17.5-7.83-17.5-17.5H263C263,498.35,278.65,514,298,514z"/>
	</g>
</g>
</svg>
