<?xml version="1.0" encoding="utf-8"?>
<!-- Generator: Adobe Illustrator 25.2.1, SVG Export Plug-In . SVG Version: 6.00 Build 0)  -->
<svg version="1.1" id="レイヤー_1" xmlns="http://www.w3.org/2000/svg" xmlns:xlink="http://www.w3.org/1999/xlink" x="0px"
	 y="0px" viewBox="0 0 200 40" style="enable-background:new 0 0 200 40;" xml:space="preserve">
<style type="text/css">
	.st0{fill:#FFFFFF;}
	.st1{fill:#FFC042;}
</style>
<g>
	<g>
		<path class="st0" d="M56.07,23.45l6.14-0.38c0.13,1,0.4,1.76,0.81,2.28c0.67,0.85,1.62,1.27,2.85,1.27c0.92,0,1.63-0.22,2.13-0.65
			c0.5-0.43,0.75-0.93,0.75-1.5c0-0.54-0.24-1.03-0.71-1.45c-0.48-0.43-1.58-0.83-3.31-1.21c-2.83-0.64-4.85-1.48-6.06-2.54
			c-1.22-1.05-1.82-2.4-1.82-4.03c0-1.07,0.31-2.09,0.93-3.04c0.62-0.96,1.56-1.71,2.81-2.25c1.25-0.55,2.96-0.82,5.14-0.82
			c2.67,0,4.71,0.5,6.11,1.49c1.4,0.99,2.24,2.57,2.5,4.74l-6.09,0.36c-0.16-0.94-0.5-1.62-1.02-2.05
			c-0.52-0.43-1.23-0.64-2.15-0.64c-0.75,0-1.32,0.16-1.7,0.48c-0.38,0.32-0.57,0.71-0.57,1.16c0,0.33,0.16,0.63,0.47,0.9
			c0.3,0.28,1.03,0.53,2.17,0.77c2.82,0.61,4.84,1.22,6.07,1.85c1.22,0.62,2.11,1.39,2.67,2.32c0.56,0.92,0.83,1.95,0.83,3.09
			c0,1.34-0.37,2.58-1.11,3.71c-0.74,1.13-1.78,1.99-3.11,2.57c-1.33,0.58-3.01,0.88-5.03,0.88c-3.55,0-6.02-0.68-7.38-2.05
			C57.03,27.3,56.25,25.56,56.07,23.45z"/>
		<path class="st0" d="M76.94,9.47h5.8v7.7c0.79-0.82,1.57-1.4,2.35-1.75c0.78-0.35,1.7-0.53,2.77-0.53c1.58,0,2.82,0.48,3.73,1.44
			c0.91,0.96,1.36,2.43,1.36,4.42v9.62h-5.83v-8.32c0-0.95-0.18-1.62-0.53-2.02c-0.35-0.39-0.85-0.59-1.48-0.59
			c-0.7,0-1.27,0.27-1.71,0.8c-0.44,0.53-0.66,1.49-0.66,2.87v7.27h-5.8V9.47z"/>
		<path class="st0" d="M95.36,9.47h5.8v3.95h-5.8V9.47z M95.36,15.23h5.8v15.14h-5.8V15.23z"/>
		<path class="st0" d="M111.32,15.23h2.77v4.25h-2.77v10.89h-5.82V19.48h-2.17v-4.25h2.17v-0.68c0-0.62,0.07-1.3,0.2-2.04
			c0.13-0.74,0.38-1.35,0.75-1.82c0.37-0.47,0.88-0.85,1.54-1.14c0.66-0.29,1.63-0.43,2.9-0.43c1.02,0,2.49,0.12,4.43,0.36
			l-0.64,3.51c-0.69-0.11-1.25-0.17-1.68-0.17c-0.52,0-0.9,0.09-1.13,0.26c-0.23,0.18-0.39,0.45-0.48,0.83
			C111.34,14.11,111.32,14.55,111.32,15.23z"/>
		<path class="st0" d="M123.22,9.47v5.76h3.19v4.25h-3.19v5.36c0,0.64,0.06,1.07,0.19,1.28c0.19,0.32,0.52,0.48,1,0.48
			c0.43,0,1.03-0.12,1.8-0.37l0.43,4c-1.43,0.31-2.77,0.47-4.02,0.47c-1.44,0-2.51-0.18-3.19-0.55c-0.68-0.37-1.19-0.93-1.52-1.69
			c-0.33-0.75-0.49-1.98-0.49-3.67v-5.32h-2.14v-4.25h2.14v-2.78L123.22,9.47z"/>
		<path class="st0" d="M133.83,20.13l-5.54-0.58c0.21-0.97,0.51-1.73,0.91-2.29c0.39-0.56,0.96-1.04,1.7-1.45
			c0.53-0.29,1.26-0.52,2.2-0.68c0.93-0.16,1.94-0.24,3.02-0.24c1.74,0,3.14,0.1,4.19,0.29c1.05,0.19,1.93,0.6,2.64,1.22
			c0.49,0.43,0.88,1.03,1.17,1.82c0.29,0.78,0.43,1.53,0.43,2.24v6.69c0,0.71,0.04,1.27,0.14,1.67c0.09,0.4,0.29,0.92,0.59,1.55
			h-5.44c-0.22-0.39-0.36-0.69-0.43-0.89c-0.07-0.2-0.13-0.52-0.2-0.96c-0.76,0.73-1.52,1.25-2.27,1.57
			c-1.03,0.42-2.22,0.63-3.58,0.63c-1.81,0-3.18-0.42-4.11-1.25c-0.94-0.84-1.4-1.87-1.4-3.09c0-1.15,0.34-2.1,1.01-2.84
			c0.67-0.74,1.92-1.29,3.73-1.65c2.18-0.44,3.59-0.74,4.23-0.92c0.65-0.18,1.33-0.41,2.05-0.69c0-0.71-0.15-1.21-0.44-1.5
			c-0.29-0.28-0.81-0.43-1.55-0.43c-0.95,0-1.66,0.15-2.14,0.46C134.36,19.03,134.06,19.48,133.83,20.13z M138.87,23.18
			c-0.8,0.29-1.63,0.54-2.49,0.76c-1.18,0.31-1.92,0.62-2.24,0.93c-0.32,0.31-0.48,0.67-0.48,1.07c0,0.46,0.16,0.83,0.48,1.12
			c0.32,0.29,0.79,0.43,1.4,0.43c0.65,0,1.25-0.16,1.8-0.47c0.56-0.31,0.95-0.7,1.18-1.15c0.23-0.45,0.35-1.04,0.35-1.76V23.18z"/>
		<path class="st0" d="M146.47,15.23h5.4v2.47c0.81-1.01,1.62-1.73,2.45-2.16c0.83-0.43,1.83-0.65,3.02-0.65
			c1.61,0,2.86,0.48,3.77,1.43c0.91,0.96,1.36,2.43,1.36,4.43v9.62h-5.83v-8.32c0-0.95-0.18-1.62-0.53-2.02
			c-0.35-0.39-0.85-0.59-1.48-0.59c-0.7,0-1.27,0.27-1.71,0.8c-0.44,0.53-0.66,1.49-0.66,2.87v7.27h-5.8V15.23z"/>
	</g>
	<g>
		<g>
			<path class="st1" d="M45.52,22.67c-3.68,0-6.67-2.98-6.67-6.67s2.98-6.67,6.67-6.67s6.67,2.98,6.67,6.67h1.33c0-4.42-3.58-8-8-8
				s-8,3.58-8,8s3.58,8,8,8V22.67z"/>
			<path class="st1" d="M45.52,10.67c-2.95,0-5.33,2.39-5.33,5.33s2.39,5.33,5.33,5.33V20c-2.21,0-4-1.79-4-4s1.79-4,4-4s4,1.79,4,4
				h1.33C50.85,13.05,48.47,10.67,45.52,10.67z"/>
			<path class="st1" d="M45.52,13.33c-1.47,0-2.67,1.19-2.67,2.67s1.19,2.67,2.67,2.67v-1.33c-0.74,0-1.33-0.6-1.33-1.33
				c0-0.74,0.6-1.33,1.33-1.33s1.33,0.6,1.33,1.33h1.33C48.19,14.53,46.99,13.33,45.52,13.33z"/>
		</g>
		<g>
			<path class="st1" d="M45.52,17.33c3.68,0,6.67,2.98,6.67,6.67s-2.98,6.67-6.67,6.67s-6.67-2.98-6.67-6.67h-1.33
				c0,4.42,3.58,8,8,8s8-3.58,8-8s-3.58-8-8-8V17.33z"/>
			<path class="st1" d="M45.52,29.33c2.95,0,5.33-2.39,5.33-5.33s-2.39-5.33-5.33-5.33V20c2.21,0,4,1.79,4,4s-1.79,4-4,4
				s-4-1.79-4-4h-1.33C40.19,26.95,42.57,29.33,45.52,29.33z"/>
			<path class="st1" d="M45.52,26.67c1.47,0,2.67-1.19,2.67-2.67s-1.19-2.67-2.67-2.67v1.33c0.74,0,1.33,0.6,1.33,1.33
				s-0.6,1.33-1.33,1.33s-1.33-0.6-1.33-1.33h-1.33C42.85,25.47,44.04,26.67,45.52,26.67z"/>
		</g>
	</g>
</g>
</svg>
