<?xml version="1.0" encoding="utf-8"?>
<!-- Generator: Adobe Illustrator 25.2.1, SVG Export Plug-In . SVG Version: 6.00 Build 0)  -->
<svg version="1.1" id="shiftanmojisiro1" xmlns="http://www.w3.org/2000/svg" xmlns:xlink="http://www.w3.org/1999/xlink" x="0px"
	 y="0px" viewBox="0 0 595.28 841.89" style="enable-background:new 0 0 595.28 841.89;" xml:space="preserve">
<style type="text/css">
	.st0{fill:#FFFFFF;}
	.st1{fill:#FFC042;}
</style>
<g>
	<path class="st0" d="M178.23,380.1l19.34-1.21c0.42,3.14,1.27,5.53,2.56,7.18c2.09,2.66,5.09,3.99,8.97,3.99
		c2.9,0,5.14-0.68,6.71-2.04c1.57-1.36,2.36-2.94,2.36-4.73c0-1.71-0.75-3.23-2.24-4.58c-1.5-1.35-4.97-2.62-10.41-3.81
		c-8.91-2-15.27-4.67-19.07-7.99c-3.83-3.32-5.74-7.55-5.74-12.7c0-3.38,0.98-6.57,2.94-9.58c1.96-3.01,4.91-5.37,8.84-7.09
		c3.93-1.72,9.33-2.58,16.18-2.58c8.41,0,14.81,1.56,19.23,4.69c4.41,3.13,7.04,8.1,7.88,14.92l-19.16,1.12
		c-0.51-2.96-1.58-5.12-3.21-6.46c-1.63-1.35-3.88-2.02-6.75-2.02c-2.36,0-4.14,0.5-5.34,1.5c-1.2,1-1.79,2.22-1.79,3.66
		c0,1.05,0.49,1.99,1.48,2.83c0.96,0.87,3.23,1.68,6.82,2.42c8.88,1.91,15.25,3.85,19.09,5.81c3.84,1.96,6.64,4.39,8.39,7.29
		c1.75,2.9,2.62,6.15,2.62,9.74c0,4.22-1.17,8.11-3.5,11.67c-2.33,3.56-5.59,6.26-9.78,8.1c-4.19,1.84-9.47,2.76-15.84,2.76
		c-11.19,0-18.94-2.15-23.24-6.46C181.23,392.21,178.79,386.74,178.23,380.1z"/>
	<path class="st0" d="M243.92,336.08h18.26v24.23c2.48-2.57,4.95-4.41,7.4-5.52c2.45-1.11,5.35-1.66,8.71-1.66
		c4.96,0,8.88,1.51,11.73,4.53c2.86,3.02,4.29,7.66,4.29,13.91v30.29h-18.35v-26.21c0-2.99-0.55-5.11-1.66-6.35
		c-1.11-1.24-2.66-1.86-4.67-1.86c-2.21,0-4.01,0.84-5.38,2.51c-1.38,1.68-2.06,4.68-2.06,9.02v22.88h-18.26V336.08z"/>
	<path class="st0" d="M301.89,336.08h18.26v12.43h-18.26V336.08z M301.89,354.21h18.26v47.65h-18.26V354.21z"/>
	<path class="st0" d="M352.14,354.21h8.71v13.37h-8.71v34.28h-18.31v-34.28h-6.82v-13.37h6.82v-2.15c0-1.94,0.21-4.08,0.63-6.42
		c0.42-2.33,1.2-4.24,2.36-5.72c1.15-1.48,2.77-2.68,4.85-3.59c2.08-0.91,5.12-1.37,9.13-1.37c3.2,0,7.85,0.37,13.96,1.12
		l-2.02,11.04c-2.18-0.36-3.95-0.54-5.29-0.54c-1.65,0-2.83,0.28-3.54,0.83c-0.72,0.55-1.23,1.43-1.53,2.62
		C352.22,350.69,352.14,352.08,352.14,354.21z"/>
	<path class="st0" d="M389.61,336.08v18.13h10.05v13.37h-10.05v16.88c0,2.03,0.19,3.37,0.58,4.03c0.6,1.02,1.64,1.52,3.14,1.52
		c1.35,0,3.23-0.39,5.65-1.16l1.35,12.61c-4.52,0.99-8.73,1.48-12.65,1.48c-4.55,0-7.9-0.58-10.05-1.75
		c-2.15-1.17-3.75-2.93-4.78-5.31c-1.03-2.38-1.55-6.22-1.55-11.54v-16.76h-6.73v-13.37h6.73v-8.75L389.61,336.08z"/>
	<path class="st0" d="M423.01,369.64l-17.46-1.84c0.66-3.05,1.61-5.45,2.85-7.2c1.24-1.75,3.03-3.27,5.36-4.55
		c1.67-0.93,3.98-1.64,6.91-2.15c2.93-0.51,6.1-0.76,9.51-0.76c5.47,0,9.87,0.31,13.19,0.92c3.32,0.61,6.09,1.89,8.3,3.84
		c1.55,1.35,2.78,3.25,3.68,5.72c0.9,2.47,1.35,4.82,1.35,7.07v21.04c0,2.24,0.14,4,0.43,5.27c0.28,1.27,0.9,2.89,1.86,4.87h-17.14
		c-0.69-1.23-1.14-2.16-1.35-2.8c-0.21-0.64-0.42-1.65-0.63-3.03c-2.39,2.3-4.77,3.95-7.13,4.94c-3.23,1.32-6.99,1.97-11.26,1.97
		c-5.68,0-10-1.32-12.95-3.95c-2.95-2.63-4.42-5.88-4.42-9.74c0-3.62,1.06-6.6,3.19-8.93s6.04-4.07,11.76-5.2
		c6.85-1.38,11.29-2.34,13.33-2.89s4.19-1.28,6.46-2.18c0-2.24-0.46-3.81-1.39-4.71c-0.93-0.9-2.56-1.35-4.89-1.35
		c-2.99,0-5.24,0.48-6.73,1.44C424.67,366.17,423.73,367.58,423.01,369.64z M438.85,379.24c-2.51,0.9-5.13,1.69-7.85,2.38
		c-3.71,0.99-6.06,1.96-7.04,2.92c-1.02,0.99-1.53,2.11-1.53,3.37c0,1.44,0.5,2.61,1.5,3.52c1,0.91,2.47,1.37,4.42,1.37
		c2.03,0,3.93-0.49,5.68-1.48c1.75-0.99,2.99-2.19,3.72-3.61c0.73-1.42,1.1-3.27,1.1-5.54V379.24z"/>
	<path class="st0" d="M462.81,354.21h17.01v7.76c2.54-3.17,5.12-5.44,7.72-6.8c2.6-1.36,5.77-2.04,9.51-2.04
		c5.06,0,9.01,1.5,11.87,4.51c2.86,3.01,4.29,7.65,4.29,13.93v30.29h-18.35v-26.21c0-2.99-0.55-5.11-1.66-6.35
		c-1.11-1.24-2.66-1.86-4.67-1.86c-2.21,0-4.01,0.84-5.38,2.51c-1.38,1.68-2.06,4.68-2.06,9.02v22.88h-18.26V354.21z"/>
</g>
<g>
	<g>
		<path class="st1" d="M145,377.62c-11.6,0-20.99-9.39-20.99-20.99s9.39-20.99,20.99-20.99s20.99,9.39,20.99,20.99h4.2
			c0-13.92-11.26-25.18-25.18-25.18s-25.18,11.26-25.18,25.18c0,13.92,11.26,25.18,25.18,25.18V377.62z"/>
		<path class="st1" d="M145,339.84c-9.28,0-16.79,7.51-16.79,16.79s7.51,16.79,16.79,16.79v-4.2c-6.96,0-12.59-5.63-12.59-12.59
			c0-6.96,5.63-12.59,12.59-12.59s12.59,5.63,12.59,12.59h4.2C161.79,347.35,154.28,339.84,145,339.84z"/>
		<path class="st1" d="M145,348.24c-4.64,0-8.39,3.75-8.39,8.39c0,4.64,3.75,8.39,8.39,8.39v-4.2c-2.32,0-4.2-1.88-4.2-4.2
			c0-2.32,1.88-4.2,4.2-4.2s4.2,1.88,4.2,4.2h4.2C153.39,351.99,149.64,348.24,145,348.24z"/>
	</g>
	<g>
		<path class="st1" d="M145,360.83c11.6,0,20.99,9.39,20.99,20.99S156.6,402.8,145,402.8s-20.99-9.39-20.99-20.99h-4.2
			c0,13.92,11.26,25.18,25.18,25.18s25.18-11.26,25.18-25.18c0-13.92-11.26-25.18-25.18-25.18V360.83z"/>
		<path class="st1" d="M145,398.61c9.28,0,16.79-7.51,16.79-16.79s-7.51-16.79-16.79-16.79v4.2c6.96,0,12.59,5.63,12.59,12.59
			c0,6.96-5.63,12.59-12.59,12.59s-12.59-5.63-12.59-12.59h-4.2C128.21,391.1,135.72,398.61,145,398.61z"/>
		<path class="st1" d="M145,390.21c4.64,0,8.39-3.75,8.39-8.39c0-4.64-3.75-8.39-8.39-8.39v4.2c2.32,0,4.2,1.88,4.2,4.2
			c0,2.32-1.88,4.2-4.2,4.2s-4.2-1.88-4.2-4.2h-4.2C136.61,386.46,140.36,390.21,145,390.21z"/>
	</g>
</g>
</svg>
