<?xml version="1.0" encoding="UTF-8"?>
<svg version="1.1" viewBox="0 0 128 40" xml:space="preserve" xmlns="http://www.w3.org/2000/svg">
<style type="text/css">
	.st0{fill:#FFFFFF;}
	.st1{fill:#FFC042;}
</style>
<g transform="translate(-36)">
		<path class="st0" d="m56.07 23.45 6.14-0.38c0.13 1 0.4 1.76 0.81 2.28 0.67 0.85 1.62 1.27 2.85 1.27 0.92 0 1.63-0.22 2.13-0.65s0.75-0.93 0.75-1.5c0-0.54-0.24-1.03-0.71-1.45-0.48-0.43-1.58-0.83-3.31-1.21-2.83-0.64-4.85-1.48-6.06-2.54-1.22-1.05-1.82-2.4-1.82-4.03 0-1.07 0.31-2.09 0.93-3.04 0.62-0.96 1.56-1.71 2.81-2.25 1.25-0.55 2.96-0.82 5.14-0.82 2.67 0 4.71 0.5 6.11 1.49s2.24 2.57 2.5 4.74l-6.09 0.36c-0.16-0.94-0.5-1.62-1.02-2.05s-1.23-0.64-2.15-0.64c-0.75 0-1.32 0.16-1.7 0.48s-0.57 0.71-0.57 1.16c0 0.33 0.16 0.63 0.47 0.9 0.3 0.28 1.03 0.53 2.17 0.77 2.82 0.61 4.84 1.22 6.07 1.85 1.22 0.62 2.11 1.39 2.67 2.32 0.56 0.92 0.83 1.95 0.83 3.09 0 1.34-0.37 2.58-1.11 3.71s-1.78 1.99-3.11 2.57-3.01 0.88-5.03 0.88c-3.55 0-6.02-0.68-7.38-2.05-1.36-1.41-2.14-3.15-2.32-5.26z"/>
		<path class="st0" d="m76.94 9.47h5.8v7.7c0.79-0.82 1.57-1.4 2.35-1.75s1.7-0.53 2.77-0.53c1.58 0 2.82 0.48 3.73 1.44s1.36 2.43 1.36 4.42v9.62h-5.83v-8.32c0-0.95-0.18-1.62-0.53-2.02-0.35-0.39-0.85-0.59-1.48-0.59-0.7 0-1.27 0.27-1.71 0.8s-0.66 1.49-0.66 2.87v7.27h-5.8z"/>
		<path class="st0" d="m95.36 9.47h5.8v3.95h-5.8zm0 5.76h5.8v15.14h-5.8z"/>
		<path class="st0" d="m111.32 15.23h2.77v4.25h-2.77v10.89h-5.82v-10.89h-2.17v-4.25h2.17v-0.68c0-0.62 0.07-1.3 0.2-2.04s0.38-1.35 0.75-1.82 0.88-0.85 1.54-1.14 1.63-0.43 2.9-0.43c1.02 0 2.49 0.12 4.43 0.36l-0.64 3.51c-0.69-0.11-1.25-0.17-1.68-0.17-0.52 0-0.9 0.09-1.13 0.26-0.23 0.18-0.39 0.45-0.48 0.83-0.05 0.2-0.07 0.64-0.07 1.32z"/>
		<path class="st0" d="m123.22 9.47v5.76h3.19v4.25h-3.19v5.36c0 0.64 0.06 1.07 0.19 1.28 0.19 0.32 0.52 0.48 1 0.48 0.43 0 1.03-0.12 1.8-0.37l0.43 4c-1.43 0.31-2.77 0.47-4.02 0.47-1.44 0-2.51-0.18-3.19-0.55s-1.19-0.93-1.52-1.69c-0.33-0.75-0.49-1.98-0.49-3.67v-5.32h-2.14v-4.25h2.14v-2.78z"/>
		<path class="st0" d="m133.83 20.13-5.54-0.58c0.21-0.97 0.51-1.73 0.91-2.29 0.39-0.56 0.96-1.04 1.7-1.45 0.53-0.29 1.26-0.52 2.2-0.68 0.93-0.16 1.94-0.24 3.02-0.24 1.74 0 3.14 0.1 4.19 0.29s1.93 0.6 2.64 1.22c0.49 0.43 0.88 1.03 1.17 1.82 0.29 0.78 0.43 1.53 0.43 2.24v6.69c0 0.71 0.04 1.27 0.14 1.67 0.09 0.4 0.29 0.92 0.59 1.55h-5.44c-0.22-0.39-0.36-0.69-0.43-0.89s-0.13-0.52-0.2-0.96c-0.76 0.73-1.52 1.25-2.27 1.57-1.03 0.42-2.22 0.63-3.58 0.63-1.81 0-3.18-0.42-4.11-1.25-0.94-0.84-1.4-1.87-1.4-3.09 0-1.15 0.34-2.1 1.01-2.84s1.92-1.29 3.73-1.65c2.18-0.44 3.59-0.74 4.23-0.92 0.65-0.18 1.33-0.41 2.05-0.69 0-0.71-0.15-1.21-0.44-1.5-0.29-0.28-0.81-0.43-1.55-0.43-0.95 0-1.66 0.15-2.14 0.46-0.38 0.22-0.68 0.67-0.91 1.32zm5.04 3.05c-0.8 0.29-1.63 0.54-2.49 0.76-1.18 0.31-1.92 0.62-2.24 0.93s-0.48 0.67-0.48 1.07c0 0.46 0.16 0.83 0.48 1.12s0.79 0.43 1.4 0.43c0.65 0 1.25-0.16 1.8-0.47 0.56-0.31 0.95-0.7 1.18-1.15s0.35-1.04 0.35-1.76z"/>
		<path class="st0" d="m146.47 15.23h5.4v2.47c0.81-1.01 1.62-1.73 2.45-2.16s1.83-0.65 3.02-0.65c1.61 0 2.86 0.48 3.77 1.43 0.91 0.96 1.36 2.43 1.36 4.43v9.62h-5.83v-8.32c0-0.95-0.18-1.62-0.53-2.02-0.35-0.39-0.85-0.59-1.48-0.59-0.7 0-1.27 0.27-1.71 0.8s-0.66 1.49-0.66 2.87v7.27h-5.8v-15.15z"/>
			<path class="st1" d="m45.52 22.67c-3.68 0-6.67-2.98-6.67-6.67s2.98-6.67 6.67-6.67 6.67 2.98 6.67 6.67h1.33c0-4.42-3.58-8-8-8s-8 3.58-8 8 3.58 8 8 8z"/>
			<path class="st1" d="m45.52 10.67c-2.95 0-5.33 2.39-5.33 5.33s2.39 5.33 5.33 5.33v-1.33c-2.21 0-4-1.79-4-4s1.79-4 4-4 4 1.79 4 4h1.33c0-2.95-2.38-5.33-5.33-5.33z"/>
			<path class="st1" d="m45.52 13.33c-1.47 0-2.67 1.19-2.67 2.67s1.19 2.67 2.67 2.67v-1.33c-0.74 0-1.33-0.6-1.33-1.33 0-0.74 0.6-1.33 1.33-1.33s1.33 0.6 1.33 1.33h1.33c0.01-1.48-1.19-2.68-2.66-2.68z"/>
			<path class="st1" d="m45.52 17.33c3.68 0 6.67 2.98 6.67 6.67s-2.98 6.67-6.67 6.67-6.67-2.98-6.67-6.67h-1.33c0 4.42 3.58 8 8 8s8-3.58 8-8-3.58-8-8-8z"/>
			<path class="st1" d="m45.52 29.33c2.95 0 5.33-2.39 5.33-5.33s-2.39-5.33-5.33-5.33v1.33c2.21 0 4 1.79 4 4s-1.79 4-4 4-4-1.79-4-4h-1.33c0 2.95 2.38 5.33 5.33 5.33z"/>
			<path class="st1" d="m45.52 26.67c1.47 0 2.67-1.19 2.67-2.67s-1.19-2.67-2.67-2.67v1.33c0.74 0 1.33 0.6 1.33 1.33s-0.6 1.33-1.33 1.33-1.33-0.6-1.33-1.33h-1.33c-0.01 1.48 1.18 2.68 2.66 2.68z"/>
</g>
</svg>
